<?xml version="1.0" standalone="no"?>
<!DOCTYPE svg PUBLIC "-//W3C//DTD SVG 20010904//EN"
 "http://www.w3.org/TR/2001/REC-SVG-20010904/DTD/svg10.dtd">
<svg version="1.0" xmlns="http://www.w3.org/2000/svg"
 width="100.000000pt" height="100.000000pt" viewBox="0 0 100.000000 100.000000"
 preserveAspectRatio="xMidYMid meet">
<metadata>
Created by potrace 1.14, written by Peter Selinger 2001-2017
</metadata>
<g transform="translate(0.000000,100.000000) scale(0.100000,-0.100000)"
fill="#000000" stroke="none">
<path d="M730 849 c-14 -6 -59 -43 -100 -83 l-75 -74 -150 34 c-187 42 -196
42 -234 3 -57 -56 -47 -71 95 -142 l125 -63 -48 -45 c-43 -40 -54 -46 -98 -47
-52 -2 -75 -19 -75 -53 0 -10 24 -34 55 -56 30 -21 73 -64 96 -95 30 -44 46
-58 65 -58 28 0 40 22 49 91 5 36 14 54 48 87 l42 42 63 -125 c53 -108 65
-125 86 -125 32 0 86 56 86 89 -1 14 -16 94 -34 176 l-34 150 74 75 c75 77 94
109 94 161 0 58 -61 85 -130 58z"/>
</g>
</svg>
